<svg xmlns="http://www.w3.org/2000/svg" xmlns:xlink="http://www.w3.org/1999/xlink" version="1.1" width="256" height="256" viewBox="0 0 256 256" xml:space="preserve">

<defs>
</defs>
<g style="stroke: none; stroke-width: 0; stroke-dasharray: none; stroke-linecap: butt; stroke-linejoin: miter; stroke-miterlimit: 10; fill: none; fill-rule: nonzero; opacity: 1;" transform="translate(1.4065934065934016 1.4065934065934016) scale(2.81 2.81)" >
	<path d="M 42.342 40.182 c 0.498 1.759 2.063 3.148 4.08 3.488 l 6.356 1.071 c 3.348 0.564 5.781 3.252 5.781 6.389 v 33.773 H 11.467 V 51.13 c 0 -3.137 2.433 -5.825 5.781 -6.389 l 6.356 -1.071 c 2.017 -0.34 3.582 -1.728 4.08 -3.488" style="stroke: none; stroke-width: 1; stroke-dasharray: none; stroke-linecap: butt; stroke-linejoin: miter; stroke-miterlimit: 10; fill: rgb(230,236,255); fill-rule: nonzero; opacity: 1;" transform=" matrix(1 0 0 1 0 0) " stroke-linecap="round" />
	<path d="M 47.622 22.519 l -0.471 7.793 c -0.495 5.918 -4.392 11.005 -9.977 13.023 l 0 0 c -0.698 0.252 -1.429 0.378 -2.16 0.378 c -0.731 0 -1.462 -0.126 -2.16 -0.378 l 0 0 c -5.585 -2.018 -9.482 -7.105 -9.977 -13.023 h 0 l -0.501 -7.793 v -5.377 c 0 0 23.029 -4.339 23.261 -4.339 c 0.232 0 2.324 5.269 2.324 5.269 L 47.622 22.519 z" style="stroke: none; stroke-width: 1; stroke-dasharray: none; stroke-linecap: butt; stroke-linejoin: miter; stroke-miterlimit: 10; fill: rgb(255,221,212); fill-rule: nonzero; opacity: 1;" transform=" matrix(1 0 0 1 0 0) " stroke-linecap="round" />
	<path d="M 22.376 22.519 C 16.8 14.221 19.331 8.567 28.308 5.014 c -0.196 -0.82 -1.326 -1.64 -3.111 -2.459 C 32.58 -0.22 41.36 0.415 45.376 6.901 c 5.503 1.855 7.187 8.014 2.246 15.618 c -0.551 -9.308 -6.593 -8.551 -13.889 -5.498 c -3.689 1.412 -6.891 1.266 -9.91 0.796 C 22.173 17.509 22.254 20.444 22.376 22.519 z" style="stroke: none; stroke-width: 1; stroke-dasharray: none; stroke-linecap: butt; stroke-linejoin: miter; stroke-miterlimit: 10; fill: rgb(73,74,89); fill-rule: nonzero; opacity: 1;" transform=" matrix(1 0 0 1 0 0) " stroke-linecap="round" />
	<path d="M 29.843 81.374 l 3.235 -30.154 l -2.429 -3.844 l 1.901 -4.164 c 0.103 0.04 0.201 0.085 0.305 0.123 l 0 0 c 0.698 0.252 1.429 0.378 2.159 0.378 s 1.462 -0.126 2.159 -0.378 l 0 0 c 0.104 -0.037 0.203 -0.083 0.305 -0.123 l 1.901 4.164 L 36.95 51.22 l 3.235 30.154 l -2.406 3.528 h -5.531 L 29.843 81.374 z" style="stroke: none; stroke-width: 1; stroke-dasharray: none; stroke-linecap: butt; stroke-linejoin: miter; stroke-miterlimit: 10; fill: rgb(66,148,255); fill-rule: nonzero; opacity: 1;" transform=" matrix(1 0 0 1 0 0) " stroke-linecap="round" />
	<path d="M 58.56 85.903 H 11.467 c -0.552 0 -1 -0.447 -1 -1 V 51.13 c 0 -3.628 2.782 -6.73 6.615 -7.376 l 6.356 -1.07 c 1.593 -0.268 2.882 -1.357 3.284 -2.774 c 0.15 -0.531 0.703 -0.84 1.235 -0.689 c 0.531 0.15 0.84 0.703 0.689 1.235 c -0.611 2.155 -2.525 3.804 -4.876 4.201 l -6.356 1.07 c -2.866 0.483 -4.947 2.756 -4.947 5.403 v 32.772 H 57.56 V 51.13 c 0 -2.648 -2.081 -4.92 -4.948 -5.403 l -6.356 -1.07 c -2.352 -0.397 -4.266 -2.046 -4.877 -4.202 c -0.15 -0.531 0.159 -1.084 0.69 -1.235 c 0.533 -0.147 1.085 0.159 1.235 0.69 c 0.401 1.417 1.69 2.506 3.284 2.774 l 6.356 1.07 c 3.833 0.646 6.616 3.748 6.616 7.376 v 33.772 C 59.56 85.455 59.113 85.903 58.56 85.903 z" style="stroke: none; stroke-width: 1; stroke-dasharray: none; stroke-linecap: butt; stroke-linejoin: miter; stroke-miterlimit: 10; fill: rgb(0,0,0); fill-rule: nonzero; opacity: 1;" transform=" matrix(1 0 0 1 0 0) " stroke-linecap="round" />
	<path d="M 22.376 23.519 c -0.326 0 -0.641 -0.16 -0.83 -0.442 c -2.797 -4.161 -3.716 -7.876 -2.734 -11.041 c 0.937 -3.016 3.604 -5.519 7.936 -7.452 c -0.373 -0.29 -0.98 -0.667 -1.968 -1.121 c -0.367 -0.168 -0.596 -0.541 -0.582 -0.944 c 0.015 -0.403 0.27 -0.758 0.648 -0.9 c 7.338 -2.757 16.673 -2.422 21.19 4.456 c 2.443 0.922 4.22 2.683 5.023 4.992 c 1.168 3.361 0.246 7.622 -2.597 11.998 c -0.235 0.362 -0.676 0.533 -1.095 0.422 c -0.417 -0.11 -0.717 -0.477 -0.742 -0.908 c -0.182 -3.069 -1.006 -5.08 -2.448 -5.98 c -2.464 -1.539 -6.92 0.033 -10.057 1.346 c -4.078 1.561 -7.571 1.31 -10.451 0.861 c -0.155 0.091 -0.467 0.713 -0.294 3.655 c 0.027 0.45 -0.251 0.862 -0.678 1.007 C 22.591 23.502 22.483 23.519 22.376 23.519 z M 41.567 13.963 c 1.338 0 2.593 0.268 3.668 0.938 c 1.453 0.906 2.433 2.411 2.961 4.563 c 1.373 -2.901 1.722 -5.587 0.973 -7.741 c -0.641 -1.844 -2.063 -3.184 -4.112 -3.874 c -0.221 -0.075 -0.408 -0.224 -0.531 -0.421 c -3.438 -5.553 -10.578 -6.329 -16.828 -4.631 c 0.909 0.637 1.414 1.279 1.583 1.984 c 0.116 0.484 -0.142 0.979 -0.605 1.162 c -4.446 1.76 -7.121 4.009 -7.953 6.686 c -0.564 1.814 -0.307 3.92 0.761 6.288 c 0.15 -0.716 0.416 -1.27 0.849 -1.651 c 0.449 -0.397 1.041 -0.551 1.674 -0.432 c 2.723 0.423 5.767 0.631 9.369 -0.747 C 35.916 15.024 38.905 13.963 41.567 13.963 z" style="stroke: none; stroke-width: 1; stroke-dasharray: none; stroke-linecap: butt; stroke-linejoin: miter; stroke-miterlimit: 10; fill: rgb(0,0,0); fill-rule: nonzero; opacity: 1;" transform=" matrix(1 0 0 1 0 0) " stroke-linecap="round" />
	<path d="M 35.014 44.713 c -0.855 0 -1.695 -0.147 -2.499 -0.438 c -5.934 -2.145 -10.108 -7.593 -10.634 -13.88 l -0.502 -7.812 c -0.035 -0.551 0.383 -1.026 0.934 -1.062 c 0.554 -0.029 1.027 0.383 1.062 0.934 l 0.501 7.793 c 0.459 5.492 4.117 10.267 9.319 12.146 c 1.17 0.423 2.47 0.422 3.639 0 c 5.201 -1.88 8.859 -6.655 9.321 -12.166 l 0.47 -7.77 c 0.033 -0.551 0.522 -0.978 1.059 -0.938 c 0.551 0.033 0.971 0.507 0.938 1.059 l -0.472 7.793 c -0.527 6.31 -4.701 11.758 -10.635 13.903 C 36.709 44.566 35.868 44.713 35.014 44.713 z" style="stroke: none; stroke-width: 1; stroke-dasharray: none; stroke-linecap: butt; stroke-linejoin: miter; stroke-miterlimit: 10; fill: rgb(0,0,0); fill-rule: nonzero; opacity: 1;" transform=" matrix(1 0 0 1 0 0) " stroke-linecap="round" />
	<path d="M 22.337 85.903 c -0.552 0 -1 -0.447 -1 -1 V 68.248 c 0 -0.553 0.448 -1 1 -1 c 0.552 0 1 0.447 1 1 v 16.654 C 23.337 85.455 22.889 85.903 22.337 85.903 z" style="stroke: none; stroke-width: 1; stroke-dasharray: none; stroke-linecap: butt; stroke-linejoin: miter; stroke-miterlimit: 10; fill: rgb(0,0,0); fill-rule: nonzero; opacity: 1;" transform=" matrix(1 0 0 1 0 0) " stroke-linecap="round" />
	<path d="M 37.779 85.903 h -5.531 c -0.331 0 -0.64 -0.163 -0.826 -0.437 l -2.406 -3.529 c -0.134 -0.196 -0.193 -0.434 -0.168 -0.67 l 3.198 -29.808 l -2.243 -3.549 c -0.181 -0.285 -0.205 -0.643 -0.064 -0.949 l 1.901 -4.164 c 0.219 -0.481 0.774 -0.709 1.27 -0.518 l 0.285 0.116 c 1.17 0.423 2.47 0.422 3.639 0 l 0.285 -0.116 c 0.495 -0.191 1.05 0.037 1.27 0.518 l 1.901 4.164 c 0.14 0.307 0.116 0.664 -0.064 0.949 l -2.243 3.55 l 3.197 29.807 c 0.025 0.236 -0.034 0.474 -0.168 0.67 l -2.405 3.529 C 38.42 85.74 38.11 85.903 37.779 85.903 z M 32.777 83.903 h 4.474 l 1.9 -2.787 l -3.195 -29.789 c -0.024 -0.224 0.028 -0.45 0.149 -0.641 l 2.14 -3.387 l -1.298 -2.844 c -1.26 0.344 -2.607 0.343 -3.866 0 l -1.298 2.844 l 2.14 3.387 c 0.121 0.19 0.173 0.417 0.149 0.641 l -3.195 29.789 L 32.777 83.903 z" style="stroke: none; stroke-width: 1; stroke-dasharray: none; stroke-linecap: butt; stroke-linejoin: miter; stroke-miterlimit: 10; fill: rgb(0,0,0); fill-rule: nonzero; opacity: 1;" transform=" matrix(1 0 0 1 0 0) " stroke-linecap="round" />
	<path d="M 27.011 59.271 h -4.674 c -0.552 0 -1 -0.447 -1 -1 s 0.448 -1 1 -1 h 4.674 c 0.552 0 1 0.447 1 1 S 27.563 59.271 27.011 59.271 z" style="stroke: none; stroke-width: 1; stroke-dasharray: none; stroke-linecap: butt; stroke-linejoin: miter; stroke-miterlimit: 10; fill: rgb(0,0,0); fill-rule: nonzero; opacity: 1;" transform=" matrix(1 0 0 1 0 0) " stroke-linecap="round" />
	<circle cx="62.34" cy="72.81" r="16.19" style="stroke: none; stroke-width: 1; stroke-dasharray: none; stroke-linecap: butt; stroke-linejoin: miter; stroke-miterlimit: 10; fill: rgb(244,210,64); fill-rule: nonzero; opacity: 1;" transform="  matrix(1 0 0 1 0 0) "/>
	<path d="M 62.343 90.003 c -9.478 0 -17.189 -7.711 -17.189 -17.189 c 0 -9.479 7.711 -17.19 17.189 -17.19 s 17.189 7.711 17.189 17.19 C 79.532 82.291 71.821 90.003 62.343 90.003 z M 62.343 57.623 c -8.375 0 -15.189 6.814 -15.189 15.19 c 0 8.375 6.814 15.189 15.189 15.189 s 15.189 -6.814 15.189 -15.189 C 77.532 64.437 70.718 57.623 62.343 57.623 z" style="stroke: none; stroke-width: 1; stroke-dasharray: none; stroke-linecap: butt; stroke-linejoin: miter; stroke-miterlimit: 10; fill: rgb(0,0,0); fill-rule: nonzero; opacity: 1;" transform=" matrix(1 0 0 1 0 0) " stroke-linecap="round" />
	<path d="M 62.216 81.81 c -0.69 0 -1.379 -0.148 -2.026 -0.442 c -1.192 -0.542 -2.102 -1.515 -2.561 -2.741 c -0.193 -0.517 0.068 -1.094 0.586 -1.287 c 0.518 -0.192 1.094 0.068 1.287 0.586 c 0.271 0.726 0.81 1.302 1.515 1.622 c 0.704 0.32 1.491 0.347 2.219 0.075 c 1.497 -0.562 2.259 -2.236 1.697 -3.735 c -0.322 -0.857 -1.015 -1.499 -1.899 -1.758 l -2.011 -0.735 c -1.432 -0.417 -2.601 -1.502 -3.146 -2.955 c -0.459 -1.225 -0.414 -2.556 0.128 -3.747 c 0.541 -1.192 1.515 -2.102 2.74 -2.561 c 1.224 -0.46 2.558 -0.414 3.748 0.127 c 1.191 0.542 2.101 1.516 2.561 2.741 c 0.193 0.517 -0.068 1.093 -0.586 1.287 c -0.513 0.191 -1.093 -0.067 -1.287 -0.586 c -0.271 -0.725 -0.81 -1.301 -1.515 -1.621 c -0.704 -0.321 -1.494 -0.349 -2.219 -0.075 c -0.726 0.271 -1.302 0.81 -1.622 1.515 c -0.32 0.705 -0.348 1.493 -0.075 2.219 c 0.321 0.857 1.014 1.499 1.898 1.758 l 2.011 0.735 c 1.431 0.417 2.601 1.501 3.147 2.954 c 0.948 2.53 -0.339 5.361 -2.868 6.31 C 63.378 81.705 62.796 81.81 62.216 81.81 z" style="stroke: none; stroke-width: 1; stroke-dasharray: none; stroke-linecap: butt; stroke-linejoin: miter; stroke-miterlimit: 10; fill: rgb(0,0,0); fill-rule: nonzero; opacity: 1;" transform=" matrix(1 0 0 1 0 0) " stroke-linecap="round" />
	<path d="M 62.343 65.823 c -0.553 0 -1 -0.447 -1 -1 v -2.18 c 0 -0.553 0.447 -1 1 -1 c 0.553 0 1 0.447 1 1 v 2.18 C 63.343 65.376 62.896 65.823 62.343 65.823 z" style="stroke: none; stroke-width: 1; stroke-dasharray: none; stroke-linecap: butt; stroke-linejoin: miter; stroke-miterlimit: 10; fill: rgb(0,0,0); fill-rule: nonzero; opacity: 1;" transform=" matrix(1 0 0 1 0 0) " stroke-linecap="round" />
	<path d="M 62.343 83.982 c -0.553 0 -1 -0.447 -1 -1 v -2.18 c 0 -0.553 0.447 -1 1 -1 c 0.553 0 1 0.447 1 1 v 2.18 C 63.343 83.534 62.896 83.982 62.343 83.982 z" style="stroke: none; stroke-width: 1; stroke-dasharray: none; stroke-linecap: butt; stroke-linejoin: miter; stroke-miterlimit: 10; fill: rgb(0,0,0); fill-rule: nonzero; opacity: 1;" transform=" matrix(1 0 0 1 0 0) " stroke-linecap="round" />
	<path d="M 31.731 25.888 h -3.434 c -0.552 0 -1 -0.448 -1 -1 c 0 -0.552 0.448 -1 1 -1 h 3.434 c 0.552 0 1 0.448 1 1 C 32.731 25.44 32.283 25.888 31.731 25.888 z" style="stroke: none; stroke-width: 1; stroke-dasharray: none; stroke-linecap: butt; stroke-linejoin: miter; stroke-miterlimit: 10; fill: rgb(0,0,0); fill-rule: nonzero; opacity: 1;" transform=" matrix(1 0 0 1 0 0) " stroke-linecap="round" />
	<path d="M 41.731 25.888 h -3.434 c -0.552 0 -1 -0.448 -1 -1 c 0 -0.552 0.448 -1 1 -1 h 3.434 c 0.552 0 1 0.448 1 1 C 42.731 25.44 42.284 25.888 41.731 25.888 z" style="stroke: none; stroke-width: 1; stroke-dasharray: none; stroke-linecap: butt; stroke-linejoin: miter; stroke-miterlimit: 10; fill: rgb(0,0,0); fill-rule: nonzero; opacity: 1;" transform=" matrix(1 0 0 1 0 0) " stroke-linecap="round" />
	<path d="M 34.936 37.475 c -1.613 0 -3.2 -0.651 -4.716 -1.955 c -0.419 -0.36 -0.466 -0.992 -0.106 -1.41 s 0.992 -0.466 1.41 -0.106 c 2.294 1.973 4.52 1.966 7.007 -0.023 c 0.432 -0.344 1.06 -0.274 1.406 0.157 c 0.345 0.432 0.274 1.061 -0.157 1.406 C 38.169 36.831 36.539 37.475 34.936 37.475 z" style="stroke: none; stroke-width: 1; stroke-dasharray: none; stroke-linecap: butt; stroke-linejoin: miter; stroke-miterlimit: 10; fill: rgb(0,0,0); fill-rule: nonzero; opacity: 1;" transform=" matrix(1 0 0 1 0 0) " stroke-linecap="round" />
</g>
</svg>